<svg width="2253" height="835" viewBox="0 0 2253 835" fill="none" xmlns="http://www.w3.org/2000/svg">
<path d="M2116.73 562.831C2103.78 562.831 2092.25 560.585 2082.12 556.094C2071.99 551.514 2063.98 544.777 2058.08 535.882C2052.26 526.899 2049.36 515.714 2049.36 502.328C2049.36 491.055 2051.43 481.588 2055.57 473.926C2059.7 466.264 2065.34 460.099 2072.47 455.432C2079.61 450.764 2087.71 447.241 2096.78 444.863C2105.94 442.486 2115.54 440.812 2125.58 439.844C2137.38 438.611 2146.89 437.466 2154.11 436.409C2161.34 435.264 2166.58 433.591 2169.83 431.389C2173.09 429.187 2174.72 425.929 2174.72 421.613V420.821C2174.72 412.454 2172.08 405.981 2166.8 401.402C2161.6 396.822 2154.2 394.533 2144.6 394.533C2134.47 394.533 2126.42 396.778 2120.43 401.27C2114.44 405.673 2110.48 411.221 2108.54 417.915L2056.49 413.687C2059.13 401.358 2064.33 390.702 2072.08 381.719C2079.83 372.648 2089.82 365.69 2102.07 360.846C2114.39 355.915 2128.66 353.449 2144.87 353.449C2156.14 353.449 2166.93 354.77 2177.23 357.412C2187.62 360.054 2196.83 364.149 2204.84 369.697C2212.94 375.246 2219.33 382.379 2224 391.098C2228.66 399.729 2231 410.077 2231 422.142V559H2177.63V530.862H2176.04C2172.78 537.203 2168.42 542.795 2162.96 547.639C2157.5 552.395 2150.94 556.138 2143.28 558.868C2135.62 561.51 2126.77 562.831 2116.73 562.831ZM2132.85 523.993C2141.12 523.993 2148.43 522.363 2154.77 519.105C2161.12 515.758 2166.09 511.267 2169.7 505.631C2173.31 499.994 2175.12 493.609 2175.12 486.476V464.943C2173.36 466.088 2170.93 467.145 2167.85 468.114C2164.86 468.994 2161.47 469.831 2157.68 470.623C2153.89 471.328 2150.11 471.988 2146.32 472.605C2142.53 473.133 2139.1 473.618 2136.02 474.058C2129.41 475.027 2123.64 476.568 2118.71 478.682C2113.78 480.795 2109.95 483.658 2107.22 487.268C2104.49 490.791 2103.12 495.194 2103.12 500.479C2103.12 508.14 2105.9 513.997 2111.44 518.048C2117.08 522.011 2124.21 523.993 2132.85 523.993Z" fill="#DDDBDA"/>
<path d="M1848.86 559V288.455H1906.06V511.84H2022.04V559H1848.86Z" fill="#DDDBDA"/>
<path d="M1603.78 562.831C1590.83 562.831 1579.29 560.585 1569.16 556.094C1559.04 551.514 1551.02 544.777 1545.12 535.882C1539.31 526.899 1536.4 515.714 1536.4 502.328C1536.4 491.055 1538.47 481.588 1542.61 473.926C1546.75 466.264 1552.39 460.099 1559.52 455.432C1566.65 450.764 1574.76 447.241 1583.83 444.863C1592.99 442.486 1602.59 440.812 1612.63 439.844C1624.43 438.611 1633.94 437.466 1641.16 436.409C1648.38 435.264 1653.62 433.591 1656.88 431.389C1660.14 429.187 1661.77 425.929 1661.77 421.613V420.821C1661.77 412.454 1659.13 405.981 1653.84 401.402C1648.65 396.822 1641.25 394.533 1631.65 394.533C1621.52 394.533 1613.46 396.778 1607.47 401.27C1601.49 405.673 1597.52 411.221 1595.59 417.915L1543.54 413.687C1546.18 401.358 1551.38 390.702 1559.13 381.719C1566.88 372.648 1576.87 365.69 1589.11 360.846C1601.44 355.915 1615.71 353.449 1631.91 353.449C1643.19 353.449 1653.97 354.77 1664.28 357.412C1674.67 360.054 1683.87 364.149 1691.89 369.697C1699.99 375.246 1706.38 382.379 1711.04 391.098C1715.71 399.729 1718.04 410.077 1718.04 422.142V559H1664.67V530.862H1663.09C1659.83 537.203 1655.47 542.795 1650.01 547.639C1644.55 552.395 1637.99 556.138 1630.33 558.868C1622.67 561.51 1613.82 562.831 1603.78 562.831ZM1619.89 523.993C1628.17 523.993 1635.48 522.363 1641.82 519.105C1648.16 515.758 1653.14 511.267 1656.75 505.631C1660.36 499.994 1662.16 493.609 1662.16 486.476V464.943C1660.4 466.088 1657.98 467.145 1654.9 468.114C1651.9 468.994 1648.51 469.831 1644.73 470.623C1640.94 471.328 1637.15 471.988 1633.37 472.605C1629.58 473.133 1626.14 473.618 1623.06 474.058C1616.46 475.027 1610.69 476.568 1605.76 478.682C1600.83 480.795 1596.99 483.658 1594.26 487.268C1591.53 490.791 1590.17 495.194 1590.17 500.479C1590.17 508.14 1592.94 513.997 1598.49 518.048C1604.13 522.011 1611.26 523.993 1619.89 523.993Z" fill="#DDDBDA"/>
<path d="M1399.51 559V356.091H1454.07V391.494H1456.18C1459.88 378.9 1466.09 369.389 1474.81 362.96C1483.53 356.443 1493.57 353.185 1504.93 353.185C1507.75 353.185 1510.79 353.361 1514.05 353.713C1517.3 354.065 1520.17 354.55 1522.63 355.166V405.101C1519.99 404.308 1516.33 403.604 1511.67 402.987C1507 402.371 1502.73 402.062 1498.85 402.062C1490.57 402.062 1483.18 403.868 1476.66 407.479C1470.23 411.001 1465.12 415.933 1461.34 422.274C1457.64 428.615 1455.79 435.925 1455.79 444.203V559H1399.51Z" fill="#DDDBDA"/>
<path d="M1263.05 562.963C1242.53 562.963 1224.79 558.604 1209.81 549.885C1194.93 541.078 1183.44 528.837 1175.33 513.16C1167.23 497.396 1163.18 479.122 1163.18 458.338C1163.18 437.378 1167.23 419.06 1175.33 403.383C1183.44 387.619 1194.93 375.378 1209.81 366.659C1224.79 357.852 1242.53 353.449 1263.05 353.449C1283.57 353.449 1301.27 357.852 1316.16 366.659C1331.13 375.378 1342.66 387.619 1350.77 403.383C1358.87 419.06 1362.92 437.378 1362.92 458.338C1362.92 479.122 1358.87 497.396 1350.77 513.16C1342.66 528.837 1331.13 541.078 1316.16 549.885C1301.27 558.604 1283.57 562.963 1263.05 562.963ZM1263.32 519.369C1272.65 519.369 1280.44 516.727 1286.7 511.443C1292.95 506.071 1297.66 498.761 1300.83 489.514C1304.09 480.267 1305.72 469.743 1305.72 457.942C1305.72 446.141 1304.09 435.616 1300.83 426.369C1297.66 417.122 1292.95 409.812 1286.7 404.44C1280.44 399.068 1272.65 396.382 1263.32 396.382C1253.89 396.382 1245.97 399.068 1239.54 404.44C1233.2 409.812 1228.4 417.122 1225.14 426.369C1221.97 435.616 1220.38 446.141 1220.38 457.942C1220.38 469.743 1221.97 480.267 1225.14 489.514C1228.4 498.761 1233.2 506.071 1239.54 511.443C1245.97 516.727 1253.89 519.369 1263.32 519.369Z" fill="#DDDBDA"/>
<path d="M926.487 559V288.455H1034.81C1054.71 288.455 1071.32 291.405 1084.61 297.305C1097.91 303.206 1107.91 311.396 1114.6 321.876C1121.29 332.269 1124.64 344.246 1124.64 357.808C1124.64 368.376 1122.53 377.668 1118.3 385.682C1114.07 393.608 1108.26 400.125 1100.86 405.233C1093.55 410.253 1085.19 413.82 1075.76 415.933V418.575C1086.07 419.016 1095.71 421.922 1104.69 427.294C1113.76 432.666 1121.12 440.196 1126.75 449.884C1132.39 459.483 1135.21 470.932 1135.21 484.23C1135.21 498.585 1131.64 511.399 1124.51 522.672C1117.46 533.857 1107.03 542.707 1093.2 549.224C1079.37 555.742 1062.33 559 1042.08 559H926.487ZM983.688 512.236H1030.32C1046.26 512.236 1057.89 509.197 1065.19 503.121C1072.5 496.956 1076.16 488.766 1076.16 478.55C1076.16 471.064 1074.35 464.459 1070.74 458.734C1067.13 453.01 1061.98 448.519 1055.29 445.26C1048.68 442.001 1040.8 440.372 1031.64 440.372H983.688V512.236ZM983.688 401.666H1026.09C1033.93 401.666 1040.89 400.301 1046.96 397.571C1053.13 394.753 1057.97 390.79 1061.5 385.682C1065.11 380.574 1066.91 374.453 1066.91 367.32C1066.91 357.544 1063.43 349.662 1056.48 343.673C1049.61 337.685 1039.83 334.69 1027.15 334.69H983.688V401.666Z" fill="#DDDBDA"/>
<path d="M2171.97 312.107L2199.98 252H2252.03L2211.74 312.107H2171.97Z" fill="#FC5404"/>
<path d="M773.621 360.024L692.446 360.574C627.117 360.574 650.836 283.041 549.186 294.803L169.528 316.685C152.517 317.405 152.2 337.847 169.217 337.22L494.31 340.549C520.801 342.24 516.416 373.662 488.567 372.664L168.853 376.702C149.774 376.702 153.627 396.559 170.263 396.745L496.367 402.164C517.142 402.798 515.122 433.528 495.392 432.884L168.333 437.489C153.57 437.489 152.115 456.413 166.577 456.811L496.817 462.344C519.373 463.819 516.339 494.17 491.979 492.598L169.262 496.398C151.042 496.155 151.996 514.844 169.262 515.705L565.113 540.475C650.365 541.057 623.422 474.811 696.281 473.305L773.99 473.389C736.63 715.146 459.209 854.143 237.402 724.39C-0.0351105 585.493 2.73544 241.873 242.377 107.357C463.724 -16.8898 735.198 122.557 773.621 360.024Z" fill="#FC5404"/>
<path d="M756.872 641C684.294 750.669 559.83 823 418.473 823C194.522 823 12.9731 641.451 12.9731 417.5C12.9731 193.549 194.522 12 418.473 12C559.83 12 684.294 84.3305 756.872 194H771.175C697.126 77.3882 566.837 0 418.473 0C187.894 0 0.973145 186.921 0.973145 417.5C0.973145 648.079 187.894 835 418.473 835C566.837 835 697.126 757.612 771.175 641H756.872Z" fill="#FC5404"/>
<path d="M782.852 606.428L780.978 663.555L732.442 633.368L782.852 606.428Z" fill="#FC5404"/>
</svg>
